<svg xmlns="http://www.w3.org/2000/svg" xmlns:xlink="http://www.w3.org/1999/xlink" version="1.1" x="0px" y="0px" viewBox="0 0 48 48" enable-background="new 0 0 48 48" xml:space="preserve"><g><path d="M32.053,32.395l2,1c0.139,0.069,0.292,0.105,0.447,0.105H41c0.155,0,0.309-0.036,0.447-0.105l2-1   c0.494-0.247,0.694-0.848,0.447-1.342s-0.848-0.694-1.342-0.447L40.764,31.5h-6.027l-1.789-0.895   c-0.494-0.247-1.095-0.047-1.342,0.447S31.559,32.147,32.053,32.395z"/><path d="M1,46c-0.552,0-1,0.447-1,1s0.448,1,1,1h46c0.553,0,1-0.447,1-1s-0.447-1-1-1H36H10H1z"/><path d="M37,45h8c1.654,0,3-1.346,3-3v-5c0-1.654-1.346-3-3-3H29.37c0.54-0.654,0.761-1.537,0.552-2.396L29.53,29.98l-0.587-2.426   l-0.591-2.445l-0.122-0.505c-0.135-0.558-0.072-0.847-0.746-1.667S25.982,22,25,22h-6c-0.437,0-0.848,0.101-1.221,0.271   c-0.271,0.085-0.535,0.198-0.773,0.367l-3.225,2.287l-2.594-1.694c0.003-0.012,0.011-0.022,0.014-0.035l1-5   c0.059-0.294-0.018-0.599-0.207-0.83C11.804,17.134,11.521,17,11.221,17h-5c-0.3,0-0.583,0.134-0.773,0.366   c-0.189,0.231-0.266,0.536-0.207,0.83l1,5c0.025,0.127,0.078,0.242,0.146,0.346c-0.346,0.589-0.468,1.273-0.326,1.946   c0.15,0.72,0.573,1.338,1.188,1.739l5.092,3.326c0.129,0.084,0.262,0.156,0.398,0.217c0.881,0.386,1.914,0.279,2.697-0.277   l0.564-0.4V34h-3v-2c0-0.553-0.447-1-1-1H4c-0.553,0-1,0.447-1,1v2c-1.654,0-3,1.346-3,3v5c0,1.654,1.346,3,3,3h6   c0,0.553,0.447,1,1,1s1-0.447,1-1h24c0,0.553,0.447,1,1,1S37,45.553,37,45z M10.001,19l-0.6,3H8.04l-0.6-3H10.001z M17.968,28   c-0.078-0.474-0.471-0.842-0.968-0.842c-0.215,0-0.402,0.082-0.564,0.196l-0.014-0.011l-2.145,1.52   c-0.217,0.153-0.496,0.18-0.734,0.075c-0.039-0.016-0.075-0.036-0.109-0.06L8.34,25.552c-0.346-0.225-0.443-0.69-0.217-1.038   c0.203-0.31,0.599-0.421,0.928-0.277c0.037,0.017,0.074,0.037,0.11,0.061l4.665,3.048l4.34-3.078C18.389,24.107,18.594,24,19,24h1   h1.193H25h0.711c0.186,0.085,0.338,0.24,0.406,0.446c0.006,0.02,0.018,0.034,0.023,0.054l0.227,0.907l0.788,3.26l0.823,3.407   c0.076,0.314-0.059,0.642-0.333,0.812c-0.104,0.065-0.222,0.097-0.341,0.105C27.287,32.994,27.268,33,27.25,33   c-0.172,0-0.342-0.059-0.48-0.174l-1.134-0.945l-4.866-4.055c-0.287-0.239-0.337-0.643-0.151-0.954   c0.021-0.034,0.029-0.071,0.056-0.103c0.148-0.178,0.361-0.27,0.576-0.27c0.17,0,0.34,0.057,0.479,0.174l1.669,1.391l0.798,0.665   l0.002,0.002c0.104,0.076,0.226,0.134,0.36,0.165c0.395,0.094,0.787-0.064,1.02-0.366c0.084-0.109,0.15-0.234,0.184-0.377   c0.111-0.474-0.145-0.933-0.573-1.125l-0.622-0.519l-1.996-1.663c-0.402-0.222-0.855-0.346-1.32-0.346   c-0.133,0-0.262,0.024-0.393,0.043c-0.667,0.096-1.281,0.419-1.72,0.944c-0.071,0.086-0.126,0.181-0.186,0.273   c-0.257,0.394-0.408,0.838-0.438,1.307c-0.01,0.143-0.016,0.286-0.003,0.431c0.067,0.732,0.415,1.394,0.979,1.864L25.054,34H18v-6   H17.968z M5,33h6v1H5V33z M3,43c-0.552,0-1-0.449-1-1v-5c0-0.551,0.448-1,1-1h42c0.552,0,1,0.449,1,1v5c0,0.551-0.448,1-1,1H3z"/><circle cx="35" cy="30" r="1"/><circle cx="36.5" cy="28" r="1"/><circle cx="38" cy="30" r="1"/><circle cx="38" cy="26" r="1"/><circle cx="41" cy="30" r="1"/><circle cx="39.5" cy="28" r="1"/><path d="M8.358,12.764c0.192,0.179,0.5,0.463,0.614,0.617c-0.07,0.111-0.271,0.357-0.837,0.842c-0.42,0.359-0.469,0.991-0.109,1.41   c0.198,0.231,0.479,0.35,0.76,0.35c0.23,0,0.462-0.079,0.65-0.24c0.784-0.672,1.969-1.687,1.431-3.045   c-0.21-0.53-0.688-0.972-1.149-1.4c-0.227-0.21-0.605-0.562-0.676-0.637c0.013-0.039,0.113-0.263,0.857-0.9   c0.42-0.359,0.469-0.991,0.109-1.41c-0.36-0.42-0.991-0.467-1.41-0.109c-0.96,0.822-1.862,1.73-1.452,2.986   C7.34,11.82,7.857,12.3,8.358,12.764z"/><path d="M21.227,21.223c0.262,0.044,0.521,0.066,0.779,0.066c2.271,0,4.194-1.627,4.573-3.87c0.427-2.525-1.28-4.926-3.806-5.353   c-2.574-0.435-4.93,1.309-5.352,3.805c-0.207,1.223,0.074,2.453,0.793,3.464C18.934,20.347,20.004,21.017,21.227,21.223z    M19.394,16.205C19.609,14.928,20.703,14,21.996,14c0.146,0,0.295,0.013,0.445,0.038c1.437,0.243,2.408,1.61,2.166,3.048   c-0.24,1.421-1.57,2.419-3.049,2.165c-0.695-0.117-1.305-0.499-1.713-1.074C19.437,17.602,19.275,16.901,19.394,16.205z"/></g></svg>